<svg width="463" height="238" viewBox="0 0 463 238" fill="none" xmlns="http://www.w3.org/2000/svg">
<path d="M291.298 49.3729C290.286 71.5198 268.494 88.4902 252.171 89.5146C230.604 90.8686 215.191 71.4384 213.044 49.3729C211.183 30.2567 217.979 30.5415 223.04 22.5736C229.172 12.9196 240.6 7.58441 252.171 7.58441C273.78 7.58441 292.66 19.5762 291.298 49.3729Z" fill="#6D4730"/>
<path d="M267.335 87.4467H237.008V125.376H267.335V87.4467Z" fill="#E3B5AA"/>
<path d="M286.237 65.3236C291.646 57.1225 298.529 56.7632 301.403 66.4619C304.278 76.1614 294.792 84.1428 287.068 81.1976C279.345 78.2524 286.237 65.3236 286.237 65.3236Z" fill="#E3B5AA"/>
<path d="M292.623 65.5378C296.246 64.8754 298.104 75.6611 290.157 76.017L291.791 72.2541L290.258 69.1231L292.623 65.5378Z" fill="#D78F97"/>
<path d="M288.968 77.4957C293.6 72.5633 290.258 69.1231 290.258 69.1231C290.258 69.1231 294.666 60.0894 296.433 67.0131" stroke="#C87E84" stroke-width="0.5" stroke-miterlimit="10"/>
<path d="M217.853 65.3236C212.443 57.1225 205.56 56.7632 202.686 66.4619C199.812 76.1614 209.297 84.1428 217.021 81.1976C224.745 78.2524 217.853 65.3236 217.853 65.3236Z" fill="#E3B5AA"/>
<path d="M211.466 65.5378C207.843 64.8754 205.986 75.6611 213.933 76.017L212.298 72.2541L213.832 69.1231L211.466 65.5378Z" fill="#D78F97"/>
<path d="M215.121 77.4957C210.489 72.5633 213.832 69.1231 213.832 69.1231C213.832 69.1231 209.423 60.0894 207.656 67.0131" stroke="#C87E84" stroke-width="0.5" stroke-miterlimit="10"/>
<path d="M267.335 88.2854V102.395C256.437 117.149 237.008 112.352 237.008 112.352L237.348 88.2847H267.335V88.2854Z" fill="#C87E84"/>
<path d="M252.171 104.454C234.067 104.454 219.391 89.792 219.391 71.7063V47.7756C219.391 35.5601 229.304 25.6572 241.531 25.6572H262.811C275.039 25.6572 284.951 35.5601 284.951 47.7756V71.7063C284.95 89.792 270.275 104.454 252.171 104.454Z" fill="#E3B5AA"/>
<path d="M257.215 75.9872C257.215 78.7697 254.957 81.0254 252.172 81.0254C249.386 81.0254 247.128 78.7697 247.128 75.9872" stroke="#6D4730" stroke-miterlimit="10"/>
<path d="M222.854 27.1217C222.854 27.1217 217.113 17.6141 224.304 9.23126C224.304 9.23126 229.471 18.7884 222.854 27.1217Z" fill="#6D4730"/>
<path d="M225.771 24.864C225.771 24.864 217.776 32.5776 207.991 27.4458C207.991 27.4458 216.163 20.2814 225.771 24.864Z" fill="#6D4730"/>
<path d="M247.963 67.3277C249.872 60.3093 245.724 53.0739 238.699 51.167C231.674 49.26 224.431 53.4036 222.522 60.422C220.613 67.4404 224.761 74.6758 231.786 76.5827C238.812 78.4897 246.054 74.3461 247.963 67.3277Z" stroke="black" stroke-width="4" stroke-miterlimit="10"/>
<path d="M281.79 67.3819C283.733 60.373 279.621 53.1175 272.605 51.1764C265.589 49.2352 258.327 53.3435 256.384 60.3524C254.441 67.3613 258.553 74.6168 265.569 76.5579C272.585 78.499 279.847 74.3908 281.79 67.3819Z" stroke="black" stroke-width="4" stroke-miterlimit="10"/>
<path d="M223.454 35.0028C223.454 35.0028 244.279 24.0354 258.116 31.9843C271.953 39.9332 273.51 56.3489 287.174 52.1006C287.174 52.1006 297.553 47.5363 286.137 31.6385C274.721 15.7408 266.91 12.6308 252.049 16.0866C237.187 19.5423 227.516 22.2306 223.454 35.0028Z" fill="#6D4730"/>
<path d="M222.658 34.8454C222.658 34.8454 229.532 25.7399 239.154 23.333C248.776 20.9261 259.419 32.7504 259.419 32.7504C259.419 32.7504 234.765 29.2384 222.658 34.8454Z" fill="#6D4730"/>
<path d="M219.441 46.2989C219.441 46.2989 221.76 63.198 219.441 73.5118C219.441 73.5118 216.052 47.3071 219.441 46.2989Z" fill="#6D4730"/>
<path d="M284.713 46.2989C284.713 46.2989 282.394 63.198 284.713 73.5118C284.713 73.5118 288.102 47.3071 284.713 46.2989Z" fill="#6D4730"/>
<path d="M242.452 44.9795C238.875 43.2689 232.513 41.3916 226.619 45.5857C225.63 46.2894 226.006 47.8421 227.202 48.0482C229.093 48.3743 231.806 48.7112 234.876 48.6916C237.263 48.6767 240.088 48.0895 242.198 47.5478C243.438 47.2298 243.607 45.5321 242.452 44.9795Z" fill="#6D4730"/>
<path d="M276.993 44.9795C273.417 43.2689 267.055 41.3916 261.16 45.5857C260.172 46.2894 260.548 47.8421 261.743 48.0482C263.634 48.3743 266.348 48.7112 269.418 48.6916C271.805 48.6767 274.629 48.0895 276.739 47.5478C277.979 47.2298 278.147 45.5321 276.993 44.9795Z" fill="#6D4730"/>
<path d="M263.259 87.8156C262.919 88.421 262.517 89.0549 261.967 89.6862C260.214 91.7934 257.238 93.8179 252.141 93.9115L252.134 93.9338L251.76 93.9264L251.745 93.8959C246.965 93.8023 244.02 92.0049 242.244 90.0218C241.556 89.2767 241.034 88.4895 240.659 87.781C239.81 86.1524 239.589 84.8724 239.589 84.8724L264.341 84.9185C264.341 84.9185 264.136 86.1979 263.259 87.8156Z" fill="#D2476B"/>
<path d="M263.259 87.8156C262.919 88.421 262.517 89.0549 261.967 89.6862C256.286 87.1932 249.452 86.6704 242.244 90.0218C241.556 89.2767 241.034 88.4895 240.659 87.781C239.81 86.1524 239.589 84.8724 239.589 84.8724L264.341 84.9185C264.341 84.9185 264.136 86.1979 263.259 87.8156Z" fill="#36364F"/>
<path d="M357.382 219.59L135.485 219.82C135.485 219.82 139.625 211.169 145.584 199.704C146.025 198.856 146.479 197.989 146.941 197.107C155.078 181.601 166.025 162.014 174.569 151.39C184.41 139.159 207.661 130.439 223.454 125.673C232.656 122.9 239.321 121.469 239.321 121.469H264.812C264.812 121.469 270.798 122.751 279.254 125.253C295.033 129.911 318.623 139.47 329.563 151.39C331.966 154.007 334.226 157.173 336.343 160.685C349.808 183.039 357.382 219.59 357.382 219.59Z" fill="#EBA154"/>
<path opacity="0.5" d="M357.382 219.59L135.485 219.82C135.485 219.82 139.625 211.169 145.584 199.704C256.315 232.222 314.669 178.931 327.984 164.505C330.134 162.177 333.119 160.774 336.29 160.686L336.343 160.685C349.808 183.039 357.382 219.59 357.382 219.59Z" fill="#D9751F"/>
<path d="M248.689 66.1074H255.652" stroke="black" stroke-width="4" stroke-miterlimit="10"/>
<path d="M279.253 125.25C251.785 155.442 223.454 125.676 223.454 125.676C232.657 122.898 239.323 121.467 239.323 121.467H264.812C264.812 121.467 270.798 122.752 279.253 125.25Z" fill="#E3B5AA"/>
<path d="M191.523 185.43V219.861" stroke="#DC831E" stroke-width="3" stroke-miterlimit="10"/>
<path d="M191.523 207.375L182.269 195.588" stroke="#DC831E" stroke-width="3" stroke-miterlimit="10"/>
<path d="M312.191 185.43V219.861" stroke="#DC831E" stroke-width="3" stroke-miterlimit="10"/>
<path d="M312.191 207.375L320.408 196.909" stroke="#DC831E" stroke-width="3" stroke-miterlimit="10"/>
<path d="M222.138 138.78C222.138 138.78 256.197 162.017 279.253 137.652" stroke="#DC831E" stroke-width="3" stroke-miterlimit="10"/>
<path d="M281.742 199.467L292.439 185.441L292.306 189.258L282.053 175.587H289.821L296.301 184.509L293.372 184.598L300.074 175.587H307.442L297.144 189.125V185.397L307.797 199.467H299.941L293.15 189.969L296.035 190.368L289.288 199.467H281.742Z" fill="white"/>
<path d="M222.664 20.7634C230.311 -11.346 306.924 -7.81295 292.668 54.7034C288.397 73.4304 257.173 12.1345 230.225 27.1725C228.211 28.2967 225.7 28.0058 224.016 26.4301C222.469 24.9826 222.173 22.8238 222.664 20.7634Z" fill="#6D4730"/>
<path d="M264.744 219.61C264.723 219.617 264.696 219.623 264.669 219.623C264.486 219.644 264.296 219.651 264.106 219.651H115.485C113.51 219.651 111.752 218.735 110.605 217.298C109.75 216.233 109.241 214.877 109.241 213.406L109.221 213.338L86.078 148.013C84.3067 143.023 88.0122 137.782 93.3126 137.782H189.805C193.063 137.782 195.961 139.83 197.047 142.894L221.988 213.284C222.015 213.366 222.029 213.406 222.029 213.406H264.248C268.124 213.407 268.551 219.197 264.744 219.61Z" fill="#80ABBD"/>
<path d="M153.907 177.219C156.347 184.306 153.588 191.68 147.744 193.688C141.901 195.695 135.186 191.577 132.746 184.489C130.306 177.401 133.065 170.027 138.909 168.02C144.752 166.012 151.468 170.13 153.907 177.219Z" fill="white"/>
<path d="M264.25 213.406H222.028C222.028 213.406 222.016 213.363 221.991 213.283L197.046 142.893C195.959 139.829 193.063 137.784 189.807 137.784H186.581C186.581 137.784 193.79 138.254 195.592 144.699C197.395 151.138 222.028 219.514 222.028 219.514L223.849 219.649H264.104C264.299 219.649 264.489 219.642 264.672 219.624C268.557 219.271 268.147 213.406 264.25 213.406Z" fill="#4B7195"/>
<path opacity="0.4" d="M264.744 219.61C264.723 219.617 264.696 219.623 264.669 219.623C264.486 219.644 264.296 219.651 264.106 219.651H115.485C113.51 219.651 111.752 218.735 110.605 217.298C198.452 224.837 189.805 137.782 189.805 137.782C193.063 137.782 195.961 139.83 197.047 142.894L221.988 213.284C222.015 213.366 222.029 213.406 222.029 213.406H263.583C264.031 215.461 264.425 217.528 264.744 219.61Z" fill="#5A93A0"/>
<path d="M88.0204 176.526V178.712C84.0665 179.163 83.0994 182.504 83.0994 186.57V187.914C83.0994 191.98 84.0671 195.321 88.0204 195.772V197.947H12.4237C9.32151 197.947 6.80841 195.436 6.80841 192.337V182.146C6.80841 179.047 9.32151 176.526 12.4237 176.526H88.0204V176.526Z" fill="#4B7195"/>
<path d="M86.8429 193.535C87.2949 194.607 86.4642 195.772 85.3078 195.772L13.0657 195.824V178.659L85.3078 178.711C85.7285 178.711 86.1072 178.868 86.3909 179.12C86.8959 179.541 87.1266 180.266 86.8429 180.948C86.2437 182.377 86.2647 184.363 86.2647 186.568V187.913C86.264 190.12 86.243 192.106 86.8429 193.535Z" fill="white"/>
<path opacity="0.4" d="M86.3902 179.122C85.0024 179.195 21.1622 182.494 16.7876 188.692C15.5992 190.373 14.2534 191.308 13.0651 191.497V178.659L85.3071 178.712C85.7279 178.712 86.1066 178.87 86.3902 179.122Z" fill="#A3D5E6"/>
<path d="M16.7875 197.951H10.4352C8.43246 197.951 6.80841 196.329 6.80841 194.328V180.154C6.80841 178.154 8.43178 176.531 10.4352 176.531H16.7875V197.951Z" fill="#4B7195"/>
<path opacity="0.4" d="M86.8429 193.535C87.2949 194.606 86.4642 195.772 85.3078 195.772L70.8861 195.783C82.3427 194.481 81.6267 185.078 81.6267 185.078C81.7529 184.627 72.5733 179.111 72.7314 178.701L85.3078 178.712C85.7285 178.712 86.1072 178.87 86.3909 179.122C86.8959 179.542 87.1266 180.267 86.8429 180.95C86.2437 182.378 86.2647 184.364 86.2647 186.57V187.915C86.264 190.12 86.243 192.106 86.8429 193.535Z" fill="#A3D5E6"/>
<path opacity="0.4" d="M86.264 185.989H16.9103V187.537H86.264V185.989Z" fill="#A3D5E6"/>
<path opacity="0.4" d="M86.264 182.505H16.9103V184.052H86.264V182.505Z" fill="#A3D5E6"/>
<path opacity="0.4" d="M86.264 190.421H16.9103V191.969H86.264V190.421Z" fill="#A3D5E6"/>
<path d="M63.925 192.62L60.2378 188.946L56.5499 192.62V182.505H63.925V192.62Z" fill="#C33E5D"/>
<path d="M96.1067 197.874V200.059C92.1528 200.511 91.1857 203.851 91.1857 207.917V209.262C91.1857 213.327 92.1535 216.668 96.1067 217.12V219.294H20.51C17.4078 219.294 14.8947 216.783 14.8947 213.684V203.494C14.8947 200.395 17.4078 197.874 20.51 197.874H96.1067Z" fill="#C33E5D"/>
<path d="M94.9286 214.882C95.3805 215.954 94.5499 217.12 93.3934 217.12L21.1514 217.172V200.006L93.3934 200.059C93.8142 200.059 94.1929 200.216 94.4766 200.469C94.9815 200.889 95.2129 201.614 94.9286 202.297C94.3293 203.725 94.3503 205.711 94.3503 207.917V209.261C94.3503 211.468 94.3293 213.454 94.9286 214.882Z" fill="white"/>
<path opacity="0.4" d="M94.4766 200.469C93.0887 200.543 29.2485 203.842 24.8739 210.04C23.6855 211.721 22.3397 212.656 21.1514 212.845V200.008L93.3934 200.061C93.8142 200.059 94.1929 200.217 94.4766 200.469Z" fill="#A3D5E6"/>
<path d="M24.8738 219.299H18.5215C16.5188 219.299 14.8947 217.677 14.8947 215.676V201.502C14.8947 199.501 16.5181 197.879 18.5215 197.879H24.8738V219.299Z" fill="#C33E5D"/>
<path opacity="0.4" d="M94.9285 214.882C95.3805 215.954 94.5498 217.12 93.3933 217.12L78.9717 217.131C90.4283 215.829 89.7123 206.426 89.7123 206.426C89.8385 205.974 80.6589 200.459 80.817 200.049L93.3933 200.06C93.8141 200.06 94.1928 200.217 94.4765 200.469C94.9814 200.89 95.2129 201.615 94.9285 202.297C94.3292 203.726 94.3503 205.712 94.3503 207.917V209.262C94.3503 211.468 94.3292 213.454 94.9285 214.882Z" fill="#A3D5E6"/>
<path opacity="0.4" d="M94.3503 207.337H24.9966V208.884H94.3503V207.337Z" fill="#A3D5E6"/>
<path opacity="0.4" d="M94.3503 203.853H24.9966V205.4H94.3503V203.853Z" fill="#A3D5E6"/>
<path opacity="0.4" d="M94.3503 211.769H24.9966V213.316H94.3503V211.769Z" fill="#A3D5E6"/>
<path d="M86.7641 215.313L82.8679 211.431L78.9717 215.313V204.626H86.7641V215.313Z" fill="#C33E5D"/>
<path d="M462.182 228.601V230.167C462.182 234.954 458.293 238.832 453.501 238.832H9.62625C5.58819 238.832 2.19485 236.079 1.22436 232.357C1.22436 232.35 1.22436 232.344 1.21757 232.337C1.04112 231.638 0.946106 230.913 0.946106 230.167V228.601C0.946106 223.814 4.82808 219.936 9.62625 219.936H453.501C458.293 219.936 462.182 223.814 462.182 228.601Z" fill="#47547C"/>
<path opacity="0.5" d="M462.182 228.601V230.167C462.182 234.954 458.293 238.832 453.501 238.832H9.62625C5.58819 238.832 2.19485 236.079 1.22436 232.357C1.22436 232.35 1.22436 232.344 1.21757 232.337C1.03433 230.947 0.946106 230.167 0.946106 230.167C249.85 238.832 453.501 219.936 453.501 219.936C458.293 219.936 462.182 223.814 462.182 228.601Z" fill="#2B2B3F"/>
<path d="M398.329 192.685C393.912 193.017 390.214 191.969 387.124 190.053C374.657 182.346 372.056 160.608 371.877 158.975C371.986 159.476 373.215 162.134 386.173 170.843C387.252 171.57 388.239 172.307 389.141 173.052C389.141 173.052 389.156 173.065 389.187 173.088C400.48 182.431 398.329 192.685 398.329 192.685Z" fill="#0C8068"/>
<path d="M371.868 158.879C371.868 158.879 383.51 187.419 396.424 190.423" stroke="#0A6D53" stroke-miterlimit="10"/>
<path opacity="0.5" d="M398.329 192.685C393.912 193.017 390.214 191.969 387.124 190.053C389.606 184.186 389.141 173.053 389.141 173.053C389.141 173.053 389.156 173.066 389.188 173.089C400.481 182.431 398.329 192.685 398.329 192.685Z" fill="#0A6D53"/>
<path d="M431.421 160.563C431.371 160.867 431.198 161.92 430.85 163.473C430.85 163.473 430.85 163.476 430.85 163.478C429.01 171.707 422.371 193.851 404.509 191.631C404.509 191.631 404.208 189.731 404.81 186.888C405.694 182.709 408.534 176.486 417.174 171.269C429.994 163.522 431.291 161.036 431.421 160.563Z" fill="#0C8068"/>
<path d="M430.849 162.321C430.849 162.321 421.682 186.048 405.78 190.887" stroke="#0A6D53" stroke-miterlimit="10"/>
<path opacity="0.5" d="M430.849 163.473C430.849 163.473 430.849 163.476 430.849 163.478C429.009 171.707 422.37 193.851 404.508 191.631C404.508 191.631 404.207 189.731 404.81 186.888H404.828C419.689 187.682 430.849 163.473 430.849 163.473Z" fill="#0A6D53"/>
<path d="M403.549 192.423C403.108 193.189 396.586 190.481 393.647 182.647H393.644C391.88 177.94 391.409 171.383 394.325 162.622C401.985 139.612 398.828 135.274 398.734 135.152C398.888 135.225 405.545 138.527 409.837 146.562C409.837 146.562 409.843 146.572 409.856 146.593C414.577 155.454 416.42 170.059 403.549 192.423Z" fill="#159A7A"/>
<path d="M398.731 135.149C398.731 135.149 408.719 147.739 404.916 171.688C401.112 195.637 403.549 192.422 403.549 192.422" stroke="#0C8068" stroke-miterlimit="10"/>
<path opacity="0.5" d="M403.549 192.423C403.108 193.189 396.586 190.481 393.647 182.647C410.092 187.314 409.838 146.561 409.838 146.561C409.838 146.561 409.843 146.571 409.856 146.592C414.577 155.454 416.42 170.059 403.549 192.423Z" fill="#0C8068"/>
<path d="M371.867 158.879C371.867 158.879 371.869 158.905 371.875 158.96C371.861 158.902 371.867 158.879 371.867 158.879Z" fill="#0C8068"/>
<path d="M416.191 192.08V210.472C416.191 215.853 411.826 220.214 406.439 220.214H397.781C394.255 220.214 391.166 218.345 389.453 215.541H389.451C388.549 214.064 388.03 212.328 388.03 210.471V192.079H416.191V192.08Z" fill="#EBA154"/>
<path d="M417.214 189.694H387.006C386.609 189.694 386.288 190.015 386.288 190.412V191.362C386.288 191.758 386.609 192.08 387.006 192.08H417.214C417.611 192.08 417.933 191.758 417.933 191.362V190.412C417.933 190.016 417.611 189.694 417.214 189.694Z" fill="#EBA154"/>
<path d="M416.191 192.08V210.472C416.191 215.853 411.826 220.214 406.439 220.214H397.781C394.255 220.214 391.166 218.345 389.453 215.541C410.08 222.013 414.56 206.861 413.762 200.851C412.967 194.842 405.535 192.08 405.535 192.08H416.191Z" fill="#DC831E"/>
<path d="M272 63.5C272 65.4327 270.433 67 268.5 67C266.567 67 265 65.4332 265 63.5C265 61.5668 266.567 60 268.5 60C270.433 60 272 61.5673 272 63.5Z" fill="black"/>
<path d="M240 63.5C240 65.4327 238.433 67 236.5 67C234.567 67 233 65.4332 233 63.5C233 61.5668 234.567 60 236.5 60C238.433 60 240 61.5673 240 63.5Z" fill="black"/>
</svg>
