<svg width="509" height="339" viewBox="0 0 509 339" fill="none" xmlns="http://www.w3.org/2000/svg">
<g clip-path="url(#clip0_21_281)">
<path d="M316.298 150.373C315.286 172.52 293.494 189.49 277.171 190.515C255.604 191.869 240.191 172.438 238.044 150.373C236.183 131.257 242.979 131.541 248.04 123.574C254.172 113.92 265.6 108.584 277.171 108.584C298.78 108.584 317.66 120.576 316.298 150.373Z" fill="#6D4730"/>
<path d="M292.335 188.447H262.008V226.376H292.335V188.447Z" fill="#E3B5AA"/>
<path d="M311.237 166.324C316.646 158.122 323.529 157.763 326.403 167.462C329.278 177.161 319.792 185.143 312.068 182.198C304.345 179.252 311.237 166.324 311.237 166.324Z" fill="#E3B5AA"/>
<path d="M317.623 166.538C321.246 165.875 323.104 176.661 315.157 177.017L316.791 173.254L315.258 170.123L317.623 166.538Z" fill="#D78F97"/>
<path d="M313.968 178.496C318.6 173.563 315.258 170.123 315.258 170.123C315.258 170.123 319.666 161.089 321.433 168.013" stroke="#C87E84" stroke-width="0.5" stroke-miterlimit="10"/>
<path d="M242.853 166.324C237.443 158.122 230.56 157.763 227.686 167.462C224.812 177.161 234.297 185.143 242.021 182.198C249.745 179.252 242.853 166.324 242.853 166.324Z" fill="#E3B5AA"/>
<path d="M236.466 166.538C232.843 165.875 230.986 176.661 238.933 177.017L237.298 173.254L238.832 170.123L236.466 166.538Z" fill="#D78F97"/>
<path d="M240.121 178.496C235.489 173.563 238.832 170.123 238.832 170.123C238.832 170.123 234.423 161.089 232.656 168.013" stroke="#C87E84" stroke-width="0.5" stroke-miterlimit="10"/>
<path d="M292.335 189.285V203.395C281.437 218.149 262.008 213.352 262.008 213.352L262.348 189.285H292.335V189.285Z" fill="#C87E84"/>
<path d="M277.171 205.454C259.067 205.454 244.391 190.792 244.391 172.706V148.776C244.391 136.56 254.304 126.657 266.531 126.657H287.811C300.039 126.657 309.951 136.56 309.951 148.776V172.706C309.95 190.792 295.275 205.454 277.171 205.454Z" fill="#E3B5AA"/>
<path d="M282.215 176.987C282.215 179.77 279.957 182.025 277.172 182.025C274.386 182.025 272.128 179.77 272.128 176.987" stroke="#6D4730" stroke-miterlimit="10"/>
<path d="M247.854 128.122C247.854 128.122 242.113 118.614 249.304 110.231C249.304 110.231 254.471 119.788 247.854 128.122Z" fill="#6D4730"/>
<path d="M250.771 125.864C250.771 125.864 242.776 133.578 232.991 128.446C232.991 128.446 241.163 121.281 250.771 125.864Z" fill="#6D4730"/>
<path d="M272.963 168.328C274.872 161.309 270.724 154.074 263.699 152.167C256.674 150.26 249.431 154.404 247.522 161.422C245.613 168.44 249.761 175.676 256.786 177.583C263.812 179.49 271.054 175.346 272.963 168.328Z" stroke="black" stroke-width="4" stroke-miterlimit="10"/>
<path d="M306.79 168.382C308.733 161.373 304.621 154.118 297.605 152.176C290.589 150.235 283.327 154.343 281.384 161.352C279.441 168.361 283.553 175.617 290.569 177.558C297.585 179.499 304.847 175.391 306.79 168.382Z" stroke="black" stroke-width="4" stroke-miterlimit="10"/>
<path d="M248.454 136.003C248.454 136.003 269.279 125.035 283.116 132.984C296.953 140.933 298.51 157.349 312.174 153.101C312.174 153.101 322.553 148.536 311.137 132.639C299.721 116.741 291.91 113.631 277.049 117.087C262.187 120.542 252.516 123.231 248.454 136.003Z" fill="#6D4730"/>
<path d="M247.658 135.845C247.658 135.845 254.532 126.74 264.154 124.333C273.776 121.926 284.419 133.75 284.419 133.75C284.419 133.75 259.765 130.238 247.658 135.845Z" fill="#6D4730"/>
<path d="M244.441 147.299C244.441 147.299 246.76 164.198 244.441 174.512C244.441 174.512 241.052 148.307 244.441 147.299Z" fill="#6D4730"/>
<path d="M309.713 147.299C309.713 147.299 307.394 164.198 309.713 174.512C309.713 174.512 313.102 148.307 309.713 147.299Z" fill="#6D4730"/>
<path d="M267.452 145.98C263.875 144.269 257.513 142.392 251.619 146.586C250.63 147.289 251.006 148.842 252.202 149.048C254.093 149.374 256.806 149.711 259.876 149.692C262.263 149.677 265.088 149.09 267.198 148.548C268.438 148.23 268.607 146.532 267.452 145.98Z" fill="#6D4730"/>
<path d="M301.993 145.98C298.417 144.269 292.055 142.392 286.16 146.586C285.172 147.289 285.548 148.842 286.743 149.048C288.634 149.374 291.348 149.711 294.418 149.692C296.805 149.677 299.629 149.09 301.739 148.548C302.979 148.23 303.147 146.532 301.993 145.98Z" fill="#6D4730"/>
<path d="M288.259 188.816C287.919 189.421 287.517 190.055 286.967 190.686C285.214 192.793 282.238 194.818 277.141 194.911L277.134 194.934L276.76 194.926L276.745 194.896C271.965 194.802 269.02 193.005 267.244 191.022C266.556 190.277 266.034 189.489 265.659 188.781C264.81 187.152 264.589 185.872 264.589 185.872L289.341 185.918C289.341 185.918 289.136 187.198 288.259 188.816Z" fill="#D2476B"/>
<path d="M288.259 188.816C287.919 189.421 287.517 190.055 286.967 190.686C281.286 188.193 274.452 187.67 267.244 191.022C266.556 190.277 266.034 189.489 265.659 188.781C264.81 187.152 264.589 185.872 264.589 185.872L289.341 185.918C289.341 185.918 289.136 187.198 288.259 188.816Z" fill="#36364F"/>
<path d="M382.382 320.59L160.485 320.82C160.485 320.82 164.625 312.169 170.584 300.704C171.025 299.856 171.479 298.989 171.941 298.107C180.078 282.601 191.025 263.014 199.569 252.39C209.41 240.159 232.661 231.439 248.454 226.673C257.656 223.9 264.321 222.469 264.321 222.469H289.812C289.812 222.469 295.798 223.751 304.254 226.253C320.033 230.911 343.623 240.47 354.563 252.39C356.966 255.007 359.226 258.173 361.343 261.685C374.808 284.039 382.382 320.59 382.382 320.59Z" fill="#EBA154"/>
<path opacity="0.5" d="M382.382 320.59L160.485 320.82C160.485 320.82 164.625 312.169 170.584 300.704C281.315 333.222 339.669 279.931 352.984 265.505C355.134 263.177 358.119 261.774 361.29 261.686L361.343 261.685C374.808 284.039 382.382 320.59 382.382 320.59Z" fill="#D9751F"/>
<path d="M273.689 167.107H280.652" stroke="black" stroke-width="4" stroke-miterlimit="10"/>
<path d="M304.253 226.25C276.785 256.442 248.454 226.676 248.454 226.676C257.657 223.898 264.323 222.467 264.323 222.467H289.812C289.812 222.467 295.798 223.752 304.253 226.25Z" fill="#E3B5AA"/>
<path d="M216.523 286.43V320.861" stroke="#DC831E" stroke-width="3" stroke-miterlimit="10"/>
<path d="M216.523 308.375L207.269 296.588" stroke="#DC831E" stroke-width="3" stroke-miterlimit="10"/>
<path d="M337.191 286.43V320.861" stroke="#DC831E" stroke-width="3" stroke-miterlimit="10"/>
<path d="M337.191 308.375L345.408 297.909" stroke="#DC831E" stroke-width="3" stroke-miterlimit="10"/>
<path d="M247.138 239.78C247.138 239.78 281.197 263.017 304.253 238.652" stroke="#DC831E" stroke-width="3" stroke-miterlimit="10"/>
<path d="M306.742 300.467L317.439 286.441L317.306 290.258L307.053 276.587H314.821L321.301 285.509L318.372 285.598L325.074 276.587H332.442L322.144 290.125V286.397L332.797 300.467H324.941L318.15 290.969L321.035 291.368L314.288 300.467H306.742Z" fill="white"/>
<path d="M247.664 121.763C255.311 89.654 331.924 93.1871 317.668 155.703C313.397 174.43 282.173 113.134 255.225 128.173C253.211 129.297 250.7 129.006 249.016 127.43C247.469 125.983 247.173 123.824 247.664 121.763Z" fill="#6D4730"/>
<path d="M289.744 320.61C289.723 320.617 289.696 320.623 289.669 320.623C289.486 320.644 289.296 320.651 289.106 320.651H140.485C138.51 320.651 136.752 319.735 135.605 318.298C134.75 317.233 134.241 315.877 134.241 314.406L134.221 314.338L111.078 249.013C109.307 244.023 113.012 238.782 118.313 238.782H214.805C218.063 238.782 220.961 240.83 222.047 243.894L246.988 314.284C247.015 314.366 247.029 314.406 247.029 314.406H289.248C293.124 314.407 293.551 320.197 289.744 320.61Z" fill="#80ABBD"/>
<path d="M178.907 278.219C181.347 285.306 178.588 292.68 172.744 294.688C166.901 296.695 160.186 292.577 157.746 285.489C155.306 278.401 158.065 271.027 163.909 269.02C169.752 267.012 176.468 271.13 178.907 278.219Z" fill="white"/>
<path d="M289.25 314.406H247.028C247.028 314.406 247.016 314.363 246.991 314.283L222.046 243.893C220.959 240.829 218.063 238.784 214.807 238.784H211.581C211.581 238.784 218.79 239.254 220.592 245.699C222.395 252.138 247.028 320.514 247.028 320.514L248.849 320.649H289.104C289.299 320.649 289.489 320.642 289.672 320.624C293.557 320.271 293.147 314.406 289.25 314.406Z" fill="#4B7195"/>
<path opacity="0.4" d="M289.744 320.61C289.723 320.617 289.696 320.623 289.669 320.623C289.486 320.644 289.296 320.651 289.106 320.651H140.485C138.51 320.651 136.752 319.735 135.605 318.298C223.452 325.837 214.805 238.782 214.805 238.782C218.063 238.782 220.961 240.83 222.047 243.894L246.988 314.284C247.015 314.366 247.029 314.406 247.029 314.406H288.583C289.031 316.461 289.425 318.528 289.744 320.61Z" fill="#5A93A0"/>
<path d="M113.02 277.526V279.712C109.066 280.163 108.099 283.504 108.099 287.57V288.914C108.099 292.98 109.067 296.321 113.02 296.772V298.947H37.4237C34.3215 298.947 31.8084 296.436 31.8084 293.337V283.146C31.8084 280.047 34.3215 277.526 37.4237 277.526H113.02V277.526Z" fill="#4B7195"/>
<path d="M111.843 294.535C112.295 295.607 111.464 296.772 110.308 296.772L38.0657 296.824V279.659L110.308 279.711C110.729 279.711 111.107 279.868 111.391 280.12C111.896 280.541 112.127 281.266 111.843 281.948C111.244 283.377 111.265 285.363 111.265 287.568V288.913C111.264 291.12 111.243 293.106 111.843 294.535Z" fill="white"/>
<path opacity="0.4" d="M111.39 280.122C110.002 280.195 46.1622 283.494 41.7876 289.692C40.5992 291.373 39.2534 292.308 38.0651 292.497V279.659L110.307 279.712C110.728 279.712 111.107 279.87 111.39 280.122Z" fill="#A3D5E6"/>
<path d="M41.7875 298.951H35.4352C33.4325 298.951 31.8084 297.329 31.8084 295.328V281.154C31.8084 279.154 33.4318 277.531 35.4352 277.531H41.7875V298.951Z" fill="#4B7195"/>
<path opacity="0.4" d="M111.843 294.535C112.295 295.606 111.464 296.772 110.308 296.772L95.8861 296.783C107.343 295.481 106.627 286.078 106.627 286.078C106.753 285.627 97.5733 280.111 97.7314 279.701L110.308 279.712C110.729 279.712 111.107 279.87 111.391 280.122C111.896 280.542 112.127 281.267 111.843 281.95C111.244 283.378 111.265 285.364 111.265 287.57V288.915C111.264 291.12 111.243 293.106 111.843 294.535Z" fill="#A3D5E6"/>
<path opacity="0.4" d="M111.264 286.989H41.9103V288.537H111.264V286.989Z" fill="#A3D5E6"/>
<path opacity="0.4" d="M111.264 283.505H41.9103V285.052H111.264V283.505Z" fill="#A3D5E6"/>
<path opacity="0.4" d="M111.264 291.421H41.9103V292.969H111.264V291.421Z" fill="#A3D5E6"/>
<path d="M88.925 293.62L85.2378 289.946L81.5499 293.62V283.505H88.925V293.62Z" fill="#C33E5D"/>
<path d="M121.107 298.874V301.059C117.153 301.511 116.186 304.851 116.186 308.917V310.262C116.186 314.327 117.153 317.668 121.107 318.12V320.294H45.51C42.4078 320.294 39.8947 317.783 39.8947 314.684V304.494C39.8947 301.395 42.4078 298.874 45.51 298.874H121.107Z" fill="#C33E5D"/>
<path d="M119.929 315.882C120.381 316.954 119.55 318.12 118.393 318.12L46.1514 318.172V301.006L118.393 301.059C118.814 301.059 119.193 301.216 119.477 301.469C119.981 301.889 120.213 302.614 119.929 303.297C119.329 304.725 119.35 306.711 119.35 308.917V310.261C119.35 312.468 119.329 314.454 119.929 315.882Z" fill="white"/>
<path opacity="0.4" d="M119.477 301.469C118.089 301.543 54.2485 304.842 49.8739 311.04C48.6855 312.721 47.3397 313.656 46.1514 313.845V301.008L118.393 301.061C118.814 301.059 119.193 301.217 119.477 301.469Z" fill="#A3D5E6"/>
<path d="M49.8738 320.299H43.5215C41.5188 320.299 39.8947 318.677 39.8947 316.676V302.502C39.8947 300.501 41.5181 298.879 43.5215 298.879H49.8738V320.299Z" fill="#C33E5D"/>
<path opacity="0.4" d="M119.928 315.882C120.38 316.954 119.55 318.12 118.393 318.12L103.972 318.131C115.428 316.829 114.712 307.426 114.712 307.426C114.838 306.974 105.659 301.459 105.817 301.049L118.393 301.06C118.814 301.06 119.193 301.217 119.477 301.469C119.981 301.89 120.213 302.615 119.928 303.297C119.329 304.726 119.35 306.712 119.35 308.917V310.262C119.35 312.468 119.329 314.454 119.928 315.882Z" fill="#A3D5E6"/>
<path opacity="0.4" d="M119.35 308.337H49.9966V309.884H119.35V308.337Z" fill="#A3D5E6"/>
<path opacity="0.4" d="M119.35 304.853H49.9966V306.4H119.35V304.853Z" fill="#A3D5E6"/>
<path opacity="0.4" d="M119.35 312.769H49.9966V314.316H119.35V312.769Z" fill="#A3D5E6"/>
<path d="M111.764 316.313L107.868 312.431L103.972 316.313V305.626H111.764V316.313Z" fill="#C33E5D"/>
<path d="M487.182 329.601V331.167C487.182 335.954 483.293 339.832 478.501 339.832H34.6263C30.5882 339.832 27.1949 337.079 26.2244 333.357C26.2244 333.35 26.2244 333.344 26.2176 333.337C26.0411 332.638 25.9461 331.913 25.9461 331.167V329.601C25.9461 324.814 29.8281 320.936 34.6263 320.936H478.501C483.293 320.936 487.182 324.814 487.182 329.601Z" fill="#47547C"/>
<path opacity="0.5" d="M487.182 329.601V331.167C487.182 335.954 483.293 339.832 478.501 339.832H34.6263C30.5882 339.832 27.1949 337.079 26.2244 333.357C26.2244 333.35 26.2244 333.344 26.2176 333.337C26.0343 331.947 25.9461 331.167 25.9461 331.167C274.85 339.832 478.501 320.936 478.501 320.936C483.293 320.936 487.182 324.814 487.182 329.601Z" fill="#2B2B3F"/>
<path d="M423.329 293.685C418.912 294.017 415.214 292.969 412.124 291.053C399.657 283.346 397.056 261.608 396.877 259.975C396.986 260.476 398.215 263.134 411.173 271.843C412.252 272.57 413.239 273.307 414.141 274.052C414.141 274.052 414.156 274.065 414.187 274.088C425.48 283.431 423.329 293.685 423.329 293.685Z" fill="#0C8068"/>
<path d="M396.868 259.879C396.868 259.879 408.51 288.419 421.424 291.423" stroke="#0A6D53" stroke-miterlimit="10"/>
<path opacity="0.5" d="M423.329 293.685C418.912 294.017 415.214 292.969 412.124 291.053C414.606 285.186 414.141 274.053 414.141 274.053C414.141 274.053 414.156 274.066 414.188 274.089C425.481 283.431 423.329 293.685 423.329 293.685Z" fill="#0A6D53"/>
<path d="M456.421 261.563C456.371 261.867 456.198 262.92 455.85 264.473C455.85 264.473 455.85 264.476 455.85 264.478C454.01 272.707 447.371 294.851 429.509 292.631C429.509 292.631 429.208 290.731 429.81 287.888C430.694 283.709 433.534 277.486 442.174 272.269C454.994 264.522 456.291 262.036 456.421 261.563Z" fill="#0C8068"/>
<path d="M455.849 263.321C455.849 263.321 446.682 287.048 430.78 291.887" stroke="#0A6D53" stroke-miterlimit="10"/>
<path opacity="0.5" d="M455.849 264.473C455.849 264.473 455.849 264.476 455.849 264.478C454.009 272.707 447.37 294.851 429.508 292.631C429.508 292.631 429.207 290.731 429.81 287.888H429.828C444.689 288.682 455.849 264.473 455.849 264.473Z" fill="#0A6D53"/>
<path d="M428.549 293.423C428.108 294.189 421.586 291.481 418.647 283.647H418.644C416.88 278.94 416.409 272.383 419.325 263.622C426.985 240.612 423.828 236.274 423.734 236.152C423.888 236.225 430.545 239.527 434.837 247.562C434.837 247.562 434.843 247.572 434.856 247.593C439.577 256.454 441.42 271.059 428.549 293.423Z" fill="#159A7A"/>
<path d="M423.731 236.149C423.731 236.149 433.719 248.739 429.916 272.688C426.112 296.637 428.549 293.422 428.549 293.422" stroke="#0C8068" stroke-miterlimit="10"/>
<path opacity="0.5" d="M428.549 293.423C428.108 294.189 421.586 291.481 418.647 283.647C435.092 288.314 434.838 247.561 434.838 247.561C434.838 247.561 434.843 247.571 434.856 247.592C439.577 256.454 441.42 271.059 428.549 293.423Z" fill="#0C8068"/>
<path d="M396.867 259.879C396.867 259.879 396.869 259.905 396.875 259.96C396.861 259.902 396.867 259.879 396.867 259.879Z" fill="#0C8068"/>
<path d="M441.191 293.08V311.472C441.191 316.853 436.826 321.214 431.439 321.214H422.781C419.255 321.214 416.166 319.345 414.453 316.541H414.451C413.549 315.064 413.03 313.328 413.03 311.471V293.079H441.191V293.08Z" fill="#EBA154"/>
<path d="M442.214 290.694H412.006C411.609 290.694 411.288 291.015 411.288 291.412V292.362C411.288 292.758 411.609 293.08 412.006 293.08H442.214C442.611 293.08 442.933 292.758 442.933 292.362V291.412C442.933 291.016 442.611 290.694 442.214 290.694Z" fill="#EBA154"/>
<path d="M441.191 293.08V311.472C441.191 316.853 436.826 321.214 431.439 321.214H422.781C419.255 321.214 416.166 319.345 414.453 316.541C435.08 323.013 439.56 307.861 438.762 301.851C437.967 295.842 430.535 293.08 430.535 293.08H441.191Z" fill="#DC831E"/>
</g>
<defs>
<clipPath id="clip0_21_281">
<rect width="509" height="339" fill="white"/>
</clipPath>
</defs>
</svg>
